<svg xmlns="http://www.w3.org/2000/svg" viewBox="0 0 89.6 108.0" fill="none" stroke="#111111" stroke-width="1.54" stroke-linejoin="round" stroke-linecap="round"><path d="M36.3 77.8 L31.2 72.8 L23.8 65.2 L23.3 64.8 L23.1 64.2 L23.2 63.9 L23.3 63.7 L23.5 63.0 L24.0 62.3 L24.2 61.3 L24.4 60.2 L24.4 59.3 L24.1 57.6 L23.8 56.8 L23.3 55.9 L22.7 55.2 L21.4 53.8 L19.8 52.4 L17.6 50.3 L14.9 47.4 L13.8 46.2 L10.9 42.6 L9.5 40.7 L8.0 38.3 L5.1 33.3 L4.4 31.9 L4.0 30.9 L4.1 30.3 L4.3 29.9 L4.9 29.6 L6.9 29.2 L10.7 28.5 L11.2 28.3 L11.4 28.1 L11.6 27.8 L11.9 27.0 L12.0 26.1 L11.7 18.7 L11.6 16.0 L11.7 15.8 L12.5 14.8 L13.2 14.3 L18.9 10.2 L20.1 9.4 L26.0 7.1 L28.2 6.3 L30.2 5.0 L31.7 4.1 L32.4 4.0 L32.9 4.0 L33.4 4.3 L34.1 5.1 L34.9 5.8 L36.0 6.6 L37.4 7.1 L39.2 7.3 L40.8 7.4 L42.2 7.6 L43.7 8.1 L45.1 8.8 L46.6 9.9 L47.6 10.8 L48.6 12.1 L49.5 13.7 L50.1 15.4 L50.4 16.7 L50.6 17.7 L51.9 25.2 L51.9 26.2 L51.8 27.3 L51.4 28.4 L51.0 29.4 L50.2 30.5 L49.5 31.4 L48.7 32.4 L48.4 33.2 L48.0 34.1 L47.8 35.1 L46.2 43.3 L46.1 44.3 L46.0 45.5 L46.0 46.6 L46.1 48.6 L46.3 50.1 L46.8 51.9 L47.3 53.6 L48.0 55.0 L48.7 56.4 L49.8 58.2 L50.6 59.4 L52.2 61.1 L57.4 65.7 L58.2 66.3 L59.0 66.7 L59.5 67.0 L60.6 67.3 L61.7 67.4 L62.9 67.4 L64.1 67.4 L65.2 67.3 L66.2 67.4 L67.0 67.6 L67.8 67.9 L68.4 68.3 L69.3 69.1 L75.1 74.0 L77.2 75.8 L78.2 77.1 L79.0 78.0 L79.9 79.3 L80.7 81.3 L81.6 83.8 L83.8 91.6 L85.2 96.6 L85.4 97.9 L85.6 98.6 L85.6 99.1 L85.2 99.3 L84.2 99.7 L79.1 101.7 L73.8 103.8 L73.4 103.9 L72.8 104.0 L72.0 103.9 L71.1 103.6 L70.3 103.0 L69.8 102.6 L69.4 101.9 L66.2 96.1 L64.4 93.1 L64.1 92.7 L63.8 92.4 L63.6 92.3 L63.1 92.3 L62.8 92.5 L59.4 96.3 L59.0 96.8 L58.4 97.1 L57.8 97.3 L57.2 97.5 L56.7 97.4 L56.1 97.3 L55.3 97.0 L54.7 96.6 L54.4 96.4 L36.3 77.8 Z"/></svg>