<svg xmlns="http://www.w3.org/2000/svg" viewBox="0 0 69.7 108.0" fill="none" stroke="#111111" stroke-width="1.54" stroke-linejoin="round" stroke-linecap="round"><path d="M22.6 14.6 L17.1 5.0 L17.1 4.6 L17.3 4.2 L17.8 4.0 L18.4 4.2 L20.2 5.1 L24.6 7.2 L26.7 8.5 L28.9 10.1 L30.9 11.8 L32.4 13.5 L40.8 23.5 L41.4 24.0 L42.4 24.7 L44.2 25.8 L45.0 26.6 L45.7 27.7 L46.1 28.7 L46.4 29.8 L46.7 31.8 L46.8 32.5 L47.1 33.1 L47.5 34.0 L51.7 40.6 L54.3 44.9 L55.0 46.4 L55.5 47.6 L56.1 49.5 L59.4 61.1 L64.5 78.6 L65.6 82.8 L65.7 83.5 L65.6 84.3 L65.2 84.9 L64.6 85.4 L63.8 85.8 L63.4 86.3 L63.1 86.8 L62.8 87.5 L62.9 88.3 L63.9 92.8 L63.9 93.6 L63.7 94.3 L63.2 95.1 L62.5 95.7 L50.9 103.7 L50.2 104.0 L49.5 104.0 L48.7 103.8 L48.0 103.3 L47.6 102.7 L47.4 102.0 L47.4 101.3 L47.6 100.6 L48.0 99.9 L48.6 99.5 L53.7 96.3 L54.2 95.8 L54.5 95.2 L54.6 94.5 L54.6 93.7 L52.5 87.6 L51.8 85.1 L50.3 77.3 L49.6 72.9 L49.5 72.1 L49.1 71.3 L48.6 70.6 L47.9 69.9 L47.1 69.4 L46.2 69.0 L45.2 68.9 L42.2 68.7 L41.0 68.8 L40.0 69.1 L38.9 69.5 L38.0 70.1 L37.0 71.1 L36.4 72.0 L35.6 73.4 L32.8 80.5 L30.2 86.9 L29.7 87.9 L29.0 88.6 L28.1 89.1 L27.2 89.4 L26.4 89.4 L25.6 89.2 L24.8 88.9 L23.7 88.1 L22.9 87.8 L22.0 87.6 L21.0 87.7 L20.2 88.0 L19.4 88.5 L19.0 89.1 L18.4 89.9 L13.7 97.3 L13.2 97.7 L12.7 98.0 L12.0 98.2 L11.2 98.1 L10.5 97.8 L7.4 95.5 L5.5 94.1 L5.0 93.5 L4.5 92.8 L4.2 92.1 L4.0 91.2 L4.0 90.3 L4.1 89.3 L4.5 88.4 L4.9 87.3 L5.5 85.5 L6.6 83.6 L7.8 81.9 L9.7 79.8 L12.7 76.8 L14.5 75.4 L16.0 74.6 L23.9 70.5 L25.0 69.8 L26.1 68.9 L27.1 68.0 L27.9 67.0 L28.7 65.9 L29.8 63.9 L30.6 62.1 L32.6 57.7 L32.9 56.8 L33.1 55.7 L33.2 54.5 L33.0 53.3 L31.8 50.4 L30.6 47.1 L29.0 43.0 L28.6 41.5 L28.3 39.6 L28.1 38.0 L27.9 36.5 L27.5 30.0 L27.5 29.5 L27.8 29.2 L28.2 29.1 L28.9 29.2 L29.6 29.2 L30.1 29.1 L30.4 28.8 L30.5 28.4 L30.3 27.8 L27.8 23.7 L22.6 14.6 Z"/></svg>