<svg xmlns="http://www.w3.org/2000/svg" viewBox="0 0 96.4 108.0" fill="none" stroke="#111111" stroke-width="1.54" stroke-linejoin="round" stroke-linecap="round"><path d="M26.0 79.3 L9.6 66.2 L4.7 62.4 L4.3 61.6 L4.0 60.9 L4.1 60.1 L4.4 59.4 L4.9 59.0 L5.5 58.7 L6.4 58.6 L7.8 58.6 L11.5 58.6 L14.1 59.1 L16.4 59.8 L18.8 60.7 L20.6 61.8 L22.0 62.7 L35.5 73.3 L36.4 73.9 L37.4 74.1 L38.3 74.1 L39.1 73.8 L40.0 73.5 L40.6 73.0 L41.2 72.4 L41.5 71.8 L41.9 71.1 L42.0 70.0 L41.9 69.4 L41.6 68.5 L41.4 67.7 L37.5 61.2 L37.1 60.0 L37.1 59.0 L37.3 58.2 L37.6 57.2 L37.9 56.2 L42.2 47.7 L49.7 32.5 L51.1 30.1 L52.7 27.9 L54.6 25.7 L55.0 25.0 L55.3 24.4 L55.4 23.6 L55.2 22.8 L51.8 9.8 L51.7 8.8 L51.8 7.9 L52.0 6.9 L52.4 6.0 L53.2 5.3 L54.1 4.6 L55.0 4.2 L55.9 4.0 L57.0 4.0 L58.1 4.3 L59.4 4.9 L60.9 5.8 L62.0 6.5 L63.2 7.5 L64.6 8.5 L66.2 10.2 L73.2 17.8 L73.6 18.6 L73.7 19.1 L73.6 19.7 L73.3 20.3 L72.7 20.8 L72.2 21.3 L72.0 21.7 L72.1 22.5 L72.3 23.4 L74.8 33.0 L75.4 34.3 L75.8 34.8 L76.2 35.3 L76.7 35.7 L77.4 35.9 L78.6 36.2 L83.9 37.0 L85.0 37.4 L85.7 37.9 L86.3 38.4 L86.8 39.2 L87.0 39.9 L87.2 40.8 L87.2 41.7 L87.0 42.8 L85.7 52.1 L85.7 53.7 L85.8 54.8 L86.1 55.8 L86.5 56.9 L91.7 65.2 L92.2 66.4 L92.3 67.3 L92.4 68.1 L92.3 69.0 L92.1 69.8 L91.7 70.6 L91.1 71.4 L82.2 81.4 L74.2 90.6 L71.5 93.7 L70.9 94.0 L70.2 94.1 L69.7 94.0 L69.1 93.7 L68.6 93.3 L63.2 87.1 L62.3 86.3 L58.2 82.9 L57.5 82.5 L56.7 82.2 L55.8 82.1 L55.1 82.2 L54.1 82.6 L53.4 83.3 L53.0 84.1 L52.7 84.7 L52.7 85.6 L52.8 86.4 L53.1 87.3 L53.6 87.9 L61.8 94.5 L63.3 95.9 L63.7 96.6 L64.1 97.6 L64.2 98.9 L64.1 100.0 L63.7 100.9 L63.3 101.8 L62.6 102.6 L61.5 103.3 L60.3 103.8 L59.0 104.0 L57.7 103.8 L56.4 103.3 L55.3 102.6 L26.0 79.3 Z"/></svg>