<svg xmlns="http://www.w3.org/2000/svg" viewBox="0 0 108.0 93.2" fill="none" stroke="#111111" stroke-width="1.54" stroke-linejoin="round" stroke-linecap="round"><path d="M16.2 42.9 L27.4 15.8 L31.7 5.9 L32.6 4.8 L34.0 4.2 L35.4 4.0 L36.7 4.3 L37.9 5.1 L38.8 6.2 L39.3 7.5 L39.3 9.0 L38.1 11.9 L34.5 20.5 L33.4 24.5 L32.9 28.7 L33.2 32.7 L32.8 34.3 L31.9 35.4 L30.2 36.8 L28.3 37.5 L23.1 39.5 L21.8 40.5 L21.4 42.0 L21.3 43.4 L21.9 44.7 L22.9 45.7 L24.1 46.2 L26.1 46.2 L35.6 43.1 L40.0 42.3 L43.8 42.2 L47.2 42.4 L50.4 43.0 L52.6 43.7 L56.3 44.5 L59.8 44.8 L62.2 44.3 L65.1 43.5 L68.6 41.7 L72.8 39.0 L75.6 37.7 L78.1 37.0 L81.4 36.6 L83.9 36.7 L94.8 37.3 L97.2 37.9 L99.6 39.1 L101.2 40.5 L102.3 42.0 L103.3 43.7 L103.8 45.7 L104.0 47.8 L103.8 49.8 L103.2 51.9 L101.9 54.2 L96.9 60.9 L95.1 63.9 L91.0 72.9 L89.0 73.6 L86.5 73.9 L84.2 73.8 L81.4 73.3 L78.5 72.3 L75.4 70.8 L72.4 68.7 L70.5 66.6 L70.1 65.3 L70.5 63.9 L71.6 62.2 L73.3 61.2 L75.8 60.3 L80.0 59.6 L84.0 58.6 L87.7 57.2 L89.8 55.7 L90.6 54.0 L90.7 52.1 L90.0 50.2 L88.3 48.5 L86.8 48.0 L78.8 47.0 L70.7 47.0 L62.2 48.1 L55.0 49.9 L50.5 51.3 L45.6 53.1 L40.9 55.1 L37.0 57.4 L35.6 58.0 L34.6 57.8 L33.7 56.5 L32.6 54.6 L31.3 53.8 L29.5 53.7 L27.8 54.5 L26.8 55.7 L26.4 57.1 L26.8 59.8 L30.7 82.4 L30.8 83.9 L30.4 85.4 L29.7 86.8 L29.0 87.6 L27.4 88.7 L25.6 89.1 L18.2 89.2 L16.7 89.1 L14.5 88.8 L12.2 88.1 L10.3 87.2 L7.8 85.2 L6.2 83.1 L5.1 81.2 L4.3 78.7 L4.0 76.5 L4.2 72.9 L4.9 70.3 L15.6 44.3 L16.2 42.9 Z"/></svg>