<svg xmlns="http://www.w3.org/2000/svg" viewBox="0 0 65.9 108.0" fill="none" stroke="#111111" stroke-width="1.54" stroke-linejoin="round" stroke-linecap="round"><path d="M5.9 67.5 L7.6 47.7 L8.3 39.5 L8.4 39.1 L8.7 38.9 L8.9 38.9 L9.3 38.9 L9.6 38.9 L10.0 38.9 L10.2 38.7 L10.3 38.5 L10.4 38.3 L10.4 38.1 L9.2 33.5 L9.0 32.3 L9.0 31.2 L9.1 30.0 L9.5 24.1 L9.7 23.1 L9.9 22.2 L10.2 21.3 L10.6 20.2 L11.1 19.2 L11.8 18.1 L12.6 17.1 L13.6 16.1 L14.7 15.1 L15.9 14.2 L17.2 13.5 L18.6 12.8 L20.1 12.3 L21.7 11.8 L23.5 11.5 L25.4 11.3 L32.7 10.7 L41.6 10.2 L42.1 10.1 L42.4 10.0 L42.6 9.7 L42.9 8.7 L43.0 8.4 L43.3 8.2 L43.6 8.1 L44.8 7.9 L46.1 7.6 L48.0 7.0 L56.4 4.2 L57.1 4.0 L57.8 4.0 L58.4 4.1 L58.9 4.3 L59.3 4.6 L59.7 4.9 L60.3 5.5 L60.6 5.9 L60.8 6.5 L60.9 7.1 L61.3 11.1 L61.9 17.8 L61.9 18.4 L61.8 18.8 L61.6 19.2 L61.4 19.4 L60.9 19.7 L55.4 22.7 L51.0 25.2 L48.2 26.7 L46.9 27.5 L45.4 28.5 L44.3 29.4 L43.3 30.2 L38.5 34.3 L35.1 37.4 L27.8 43.8 L23.4 47.7 L22.8 48.3 L22.6 48.7 L22.6 49.0 L22.6 49.5 L22.7 50.5 L22.8 51.1 L22.8 51.9 L22.7 52.3 L22.5 52.9 L22.3 53.5 L21.8 54.2 L21.3 54.8 L20.6 55.4 L20.1 55.8 L19.8 56.1 L19.6 56.6 L19.4 57.4 L19.0 61.0 L18.5 64.9 L14.9 99.8 L14.7 101.0 L14.6 101.6 L14.3 102.2 L13.9 102.7 L13.4 103.2 L12.8 103.6 L12.0 103.9 L11.2 104.0 L10.5 103.9 L9.9 103.8 L9.1 103.5 L8.4 103.2 L7.8 102.8 L7.1 102.3 L6.4 101.5 L5.9 100.8 L5.4 100.0 L5.1 99.1 L4.7 98.1 L4.4 97.0 L4.3 96.1 L4.2 94.8 L4.1 93.4 L4.1 92.1 L4.0 89.6 L4.0 87.4 L4.0 85.0 L4.3 81.8 L5.4 71.8 L5.9 67.5 Z"/></svg>