<svg xmlns="http://www.w3.org/2000/svg" viewBox="0 0 70.1 108.0" fill="none" stroke="#111111" stroke-width="1.54" stroke-linejoin="round" stroke-linecap="round"><path d="M43.3 98.5 L33.0 100.3 L32.4 100.7 L32.3 103.0 L32.0 103.4 L30.3 103.7 L28.4 104.0 L26.7 103.9 L24.6 103.0 L23.1 101.6 L15.2 88.9 L11.0 82.3 L9.7 79.7 L8.9 77.9 L8.5 76.8 L7.7 73.5 L7.2 69.9 L7.4 67.2 L7.8 64.2 L8.8 61.5 L9.8 59.8 L10.2 59.2 L10.2 58.8 L9.6 58.4 L9.1 57.9 L9.2 57.4 L9.6 56.8 L9.9 56.1 L9.7 54.8 L9.0 52.3 L8.4 50.6 L7.5 49.2 L6.8 48.2 L6.4 47.0 L5.3 42.7 L4.7 41.1 L4.0 40.4 L4.0 39.8 L4.6 39.3 L5.7 38.5 L6.3 37.6 L6.3 36.6 L5.9 35.5 L4.2 32.4 L4.1 31.5 L4.0 25.6 L4.2 23.3 L4.8 22.3 L6.3 21.2 L8.0 19.8 L8.6 18.5 L8.6 17.0 L8.4 16.1 L6.4 11.1 L6.2 9.5 L6.3 7.9 L7.0 6.4 L8.1 5.1 L9.7 4.3 L11.5 4.0 L13.4 4.1 L15.2 5.0 L17.0 6.6 L18.1 8.5 L18.4 10.6 L18.3 12.5 L17.5 14.6 L16.4 16.5 L15.9 17.5 L10.3 24.4 L7.5 28.7 L7.2 29.4 L7.5 30.5 L8.6 31.6 L12.6 34.4 L14.3 35.8 L15.0 37.0 L15.3 38.2 L15.3 44.3 L15.5 45.5 L16.2 46.9 L17.1 48.3 L18.1 49.4 L19.5 50.3 L21.1 50.8 L28.6 50.8 L29.9 50.2 L31.2 49.5 L31.9 49.3 L32.4 49.8 L34.5 52.9 L37.0 57.3 L37.5 58.4 L38.2 59.4 L39.4 60.1 L40.5 60.3 L44.9 59.8 L47.0 59.8 L49.1 60.5 L50.6 61.9 L51.2 63.2 L53.7 76.9 L53.9 78.5 L54.2 79.3 L55.1 79.5 L56.4 78.5 L57.2 78.3 L62.4 77.7 L62.9 78.2 L63.9 81.6 L65.0 86.1 L66.0 92.0 L66.1 93.6 L65.2 94.6 L63.9 94.9 L43.3 98.5 Z"/></svg>