<svg xmlns="http://www.w3.org/2000/svg" viewBox="0 0 108.0 81.1" fill="none" stroke="#111111" stroke-width="1.54" stroke-linejoin="round" stroke-linecap="round"><path d="M96.0 22.7 L103.3 19.6 L103.7 19.3 L104.0 18.8 L104.0 18.4 L103.9 17.7 L102.4 13.9 L99.9 9.0 L97.8 4.3 L97.5 4.1 L97.0 4.0 L90.0 6.8 L81.5 10.1 L69.8 15.4 L59.7 20.0 L59.0 20.7 L59.0 21.6 L62.3 30.2 L62.4 30.8 L61.8 31.4 L56.1 34.1 L52.9 35.9 L48.5 38.7 L48.2 39.1 L48.3 39.6 L49.1 41.2 L49.0 41.6 L48.7 42.0 L47.0 43.4 L37.1 51.2 L35.4 52.7 L34.7 53.2 L34.0 53.1 L33.4 52.5 L30.7 44.7 L30.4 44.4 L29.9 44.3 L29.3 44.3 L28.3 43.7 L27.8 43.6 L27.2 43.6 L26.6 43.7 L25.9 43.4 L25.6 42.9 L25.1 41.1 L24.8 40.7 L24.4 40.5 L23.8 40.5 L19.6 41.9 L12.9 45.2 L8.5 47.8 L7.6 48.5 L7.0 49.5 L6.3 50.8 L4.1 58.1 L4.0 59.1 L4.7 69.3 L4.9 69.9 L5.5 70.6 L14.5 75.3 L17.1 76.4 L18.4 77.0 L19.2 77.1 L20.1 76.9 L20.8 76.5 L21.2 76.0 L23.9 71.0 L24.5 69.8 L25.3 68.9 L33.1 61.8 L33.7 60.9 L34.0 60.0 L34.7 55.4 L35.0 54.4 L35.6 53.6 L36.3 53.0 L47.5 44.3 L49.0 43.3 L50.7 42.4 L52.3 41.6 L57.3 39.5 L61.8 37.4 L72.7 32.7 L77.2 30.7 L88.6 25.8 L96.0 22.7 Z"/></svg>