<svg xmlns="http://www.w3.org/2000/svg" viewBox="0 0 108.0 72.8" fill="none" stroke="#111111" stroke-width="1.54" stroke-linejoin="round" stroke-linecap="round"><path d="M101.8 28.7 L103.8 43.9 L104.0 45.8 L103.8 46.8 L103.3 47.7 L100.8 51.4 L100.4 52.0 L99.9 52.3 L99.3 52.3 L98.0 52.3 L91.7 51.9 L82.1 50.9 L80.9 50.6 L80.1 50.1 L79.5 49.4 L79.0 48.1 L78.9 46.8 L78.9 46.0 L78.7 45.6 L77.4 45.5 L76.0 45.5 L68.9 45.1 L48.9 44.0 L46.5 43.7 L44.8 43.3 L43.0 42.4 L35.9 36.2 L32.9 33.6 L32.4 33.2 L31.7 33.1 L30.8 33.2 L30.1 33.7 L29.6 34.1 L28.4 38.0 L27.7 41.0 L26.0 49.8 L22.5 67.6 L22.3 68.0 L22.1 68.3 L21.6 68.7 L21.0 68.8 L20.3 68.8 L20.0 68.7 L19.1 67.6 L18.3 66.5 L17.7 65.1 L17.1 64.5 L14.0 62.0 L12.5 60.6 L11.5 59.7 L10.9 58.9 L10.3 56.8 L10.4 55.9 L10.6 55.2 L11.0 54.3 L10.8 53.8 L10.0 53.5 L8.6 53.0 L7.3 52.3 L5.8 51.2 L4.7 50.2 L4.2 49.3 L4.0 48.1 L4.0 47.0 L5.2 45.0 L9.9 36.5 L16.1 25.5 L17.2 23.5 L18.2 22.5 L18.6 22.2 L20.0 21.9 L21.2 22.7 L22.8 23.8 L29.2 30.5 L29.8 30.8 L30.3 30.7 L30.7 29.8 L33.3 24.9 L36.7 19.1 L37.3 18.2 L37.9 18.0 L39.0 18.5 L39.6 18.8 L57.6 29.3 L60.6 30.4 L62.6 30.8 L88.0 32.3 L89.0 32.1 L90.3 31.5 L91.4 30.8 L92.1 29.5 L92.2 28.3 L92.0 25.5 L91.3 21.8 L89.1 15.6 L88.5 14.3 L88.1 13.2 L87.9 11.9 L87.9 10.2 L88.2 6.4 L88.9 5.0 L89.8 4.1 L90.5 4.0 L91.2 4.2 L91.9 5.0 L92.3 5.6 L92.7 6.1 L93.4 6.7 L95.0 7.5 L96.4 7.9 L98.1 7.7 L99.0 8.1 L99.4 8.7 L99.7 9.7 L100.3 18.0 L101.8 28.7 Z"/></svg>