<svg xmlns="http://www.w3.org/2000/svg" viewBox="0 0 108.0 65.3" fill="none" stroke="#111111" stroke-width="1.54" stroke-linejoin="round" stroke-linecap="round"><path d="M24.1 50.8 L33.1 58.0 L35.6 59.7 L37.5 60.9 L38.2 61.2 L38.5 61.3 L38.8 61.3 L39.1 61.1 L39.3 60.8 L39.4 60.6 L39.3 60.2 L37.4 54.6 L36.5 52.0 L36.4 51.2 L36.3 50.5 L36.4 49.7 L36.5 48.9 L36.8 48.0 L37.2 47.2 L37.7 46.5 L38.3 45.7 L39.1 45.2 L40.0 44.6 L45.3 41.3 L47.4 40.0 L47.9 39.5 L48.3 39.0 L48.7 38.5 L48.9 37.9 L49.2 37.4 L49.7 35.8 L50.1 35.3 L50.6 34.7 L51.2 34.3 L51.7 34.0 L52.9 33.5 L53.9 33.0 L54.4 32.6 L54.8 32.2 L55.1 31.6 L55.2 30.9 L55.4 29.7 L55.5 29.0 L55.7 28.1 L55.9 27.5 L56.3 27.0 L56.7 26.4 L57.1 25.9 L57.8 25.3 L58.5 24.8 L59.3 24.3 L60.2 23.9 L60.9 23.8 L61.6 23.7 L62.1 23.8 L62.9 24.0 L68.0 26.4 L68.5 26.6 L69.1 26.6 L69.5 26.4 L70.5 25.8 L71.7 24.8 L72.6 23.9 L73.5 22.7 L74.1 22.0 L74.7 21.5 L75.3 21.2 L75.8 21.1 L76.6 21.1 L77.4 21.3 L78.0 21.7 L78.5 22.2 L78.8 22.5 L79.1 22.9 L79.3 23.4 L79.7 23.8 L80.1 24.0 L80.5 24.0 L89.9 21.9 L90.5 21.7 L90.8 21.5 L91.1 21.3 L96.6 14.6 L101.4 8.8 L103.2 6.5 L103.9 5.1 L104.0 4.8 L103.9 4.5 L103.7 4.3 L103.4 4.1 L103.1 4.0 L102.8 4.0 L102.3 4.1 L92.3 7.3 L85.4 9.3 L77.7 11.1 L68.6 13.0 L62.8 13.9 L57.5 14.7 L41.9 16.4 L40.2 16.7 L40.0 16.9 L39.9 17.2 L39.9 17.4 L40.1 17.7 L41.2 18.9 L44.7 23.7 L46.3 26.3 L46.4 26.6 L46.3 27.2 L46.0 27.5 L45.6 27.8 L45.3 27.9 L44.6 28.0 L41.7 27.8 L41.5 27.6 L41.2 27.4 L41.0 27.1 L40.7 26.7 L40.2 25.1 L39.9 24.5 L39.5 23.9 L37.6 22.0 L37.3 21.7 L37.0 21.6 L36.6 21.5 L34.8 21.4 L34.4 21.4 L34.2 21.5 L34.0 21.8 L33.9 22.1 L34.0 22.5 L37.6 28.8 L39.1 31.5 L39.2 32.2 L39.2 33.0 L39.0 33.6 L38.9 34.2 L38.5 35.3 L37.9 36.5 L37.5 37.0 L36.9 37.5 L36.2 37.8 L33.2 39.2 L32.7 39.3 L32.1 39.4 L31.0 39.3 L29.9 39.1 L28.9 38.8 L27.9 38.4 L26.9 37.8 L26.2 37.3 L25.8 36.6 L22.4 31.8 L19.8 28.5 L19.4 28.1 L19.0 28.0 L18.5 27.9 L18.0 27.9 L17.4 28.1 L16.6 28.3 L15.9 28.6 L5.0 33.4 L4.4 33.8 L4.1 34.2 L4.0 34.6 L4.1 34.9 L4.4 35.2 L4.7 35.5 L10.4 40.1 L24.1 50.8 Z"/></svg>