<svg xmlns="http://www.w3.org/2000/svg" viewBox="0 0 108.0 80.2" fill="none" stroke="#111111" stroke-width="1.54" stroke-linejoin="round" stroke-linecap="round"><path d="M22.3 5.4 L47.1 8.9 L55.1 9.9 L63.6 10.7 L67.7 11.2 L78.2 12.7 L96.6 15.4 L100.4 16.2 L101.0 16.4 L101.4 16.7 L101.5 17.2 L101.6 17.6 L100.9 22.2 L101.0 22.6 L101.2 22.9 L103.1 24.0 L103.7 24.3 L104.0 24.7 L104.0 25.2 L103.6 28.0 L103.0 30.6 L102.1 33.0 L101.0 35.2 L92.6 49.6 L82.4 65.4 L81.8 66.5 L81.7 67.2 L81.8 67.7 L82.1 68.1 L85.2 70.0 L85.5 70.3 L85.5 70.7 L85.3 71.1 L84.8 71.6 L79.1 75.9 L78.6 76.1 L78.1 76.2 L77.7 76.0 L76.6 75.4 L76.5 75.0 L76.5 74.1 L79.0 54.0 L79.0 53.3 L78.7 52.8 L78.4 52.3 L77.8 51.9 L74.7 50.0 L73.7 49.0 L73.0 48.4 L72.4 47.1 L71.7 45.3 L71.0 44.2 L70.2 43.5 L69.4 42.9 L68.2 42.4 L58.9 41.0 L57.9 40.7 L57.2 40.1 L56.9 39.7 L56.7 39.2 L55.5 35.5 L55.1 34.8 L54.5 34.1 L53.0 33.2 L46.1 29.5 L44.1 28.6 L41.2 27.9 L18.2 24.6 L17.7 24.4 L17.4 24.1 L17.2 23.7 L17.2 23.0 L16.8 17.1 L16.3 13.0 L16.1 12.5 L15.8 12.2 L15.3 12.0 L14.7 12.1 L14.1 12.6 L13.2 13.9 L12.8 14.2 L12.2 14.5 L11.6 14.4 L10.8 14.1 L10.0 13.7 L9.2 13.4 L5.3 13.0 L4.6 12.8 L4.3 12.5 L4.0 12.1 L4.0 11.6 L4.3 10.5 L4.8 9.0 L5.5 7.7 L6.6 6.3 L7.9 5.2 L9.5 4.4 L10.9 4.0 L12.3 4.0 L14.4 4.3 L22.3 5.4 Z"/></svg>