<svg xmlns="http://www.w3.org/2000/svg" viewBox="0 0 71.2 108.0" fill="none" stroke="#111111" stroke-width="1.54" stroke-linejoin="round" stroke-linecap="round"><path d="M10.1 75.8 L15.7 97.4 L16.3 99.7 L16.9 101.0 L18.3 103.0 L18.9 103.6 L19.9 104.0 L20.9 104.0 L22.0 103.8 L22.6 103.5 L24.3 101.9 L26.0 100.0 L26.7 99.5 L27.5 99.2 L28.4 99.1 L29.7 99.5 L32.4 101.2 L34.6 102.1 L36.2 102.5 L37.7 102.7 L39.0 102.8 L41.0 102.5 L42.5 102.2 L44.3 101.5 L46.1 100.5 L47.8 99.2 L49.2 97.7 L50.3 96.2 L51.1 94.7 L51.8 93.1 L54.4 84.3 L55.6 79.8 L57.5 72.4 L59.8 62.8 L64.0 47.1 L65.5 41.4 L66.5 37.5 L67.0 35.6 L67.2 34.5 L67.1 33.4 L66.8 32.6 L66.2 31.8 L65.1 31.0 L63.9 30.5 L62.1 30.1 L56.7 29.1 L54.6 28.8 L53.3 28.9 L51.7 29.1 L50.2 29.6 L48.9 30.4 L47.6 31.1 L46.4 32.2 L45.1 33.5 L43.5 35.6 L38.0 43.0 L34.8 47.5 L32.1 51.4 L29.1 55.3 L27.5 57.5 L26.3 59.2 L25.5 60.1 L24.5 60.7 L23.2 61.2 L21.7 61.4 L19.5 61.3 L18.0 61.1 L16.8 60.7 L15.8 60.2 L14.0 59.2 L13.1 58.4 L12.5 57.6 L11.9 56.5 L11.5 55.0 L10.9 52.7 L10.5 50.6 L9.9 46.8 L9.8 45.2 L9.8 43.6 L10.2 42.4 L10.8 41.8 L11.2 41.6 L11.8 41.4 L12.5 41.3 L13.3 41.5 L14.1 41.8 L16.2 43.5 L17.1 44.0 L17.8 44.3 L18.5 44.4 L19.2 44.5 L19.9 44.4 L20.9 44.0 L22.1 43.0 L22.8 42.0 L23.2 40.9 L23.2 40.0 L23.1 38.9 L22.7 38.1 L21.7 36.7 L20.9 35.8 L17.9 32.9 L16.4 31.2 L15.3 29.6 L14.5 27.5 L14.0 24.9 L13.7 23.3 L13.5 21.9 L13.6 20.7 L14.1 19.9 L14.5 19.4 L15.1 19.2 L15.6 19.1 L16.2 19.2 L17.0 19.5 L20.6 23.7 L23.8 27.2 L24.3 27.6 L25.5 28.4 L26.6 28.9 L27.5 29.2 L28.6 29.3 L29.6 29.5 L30.8 29.5 L32.6 29.2 L34.0 28.8 L35.5 27.9 L37.0 26.7 L37.9 25.5 L38.8 24.3 L41.2 20.5 L43.9 16.0 L46.9 11.1 L47.1 10.5 L47.1 9.9 L47.0 9.2 L46.6 8.5 L45.9 7.9 L44.4 7.0 L42.1 6.2 L37.4 4.4 L36.5 4.2 L35.3 4.0 L32.9 4.3 L30.9 4.6 L26.4 5.6 L24.9 6.1 L21.9 7.3 L20.4 8.0 L16.9 9.9 L15.6 10.8 L14.4 11.9 L13.2 13.0 L12.2 14.1 L11.3 15.5 L10.5 17.2 L9.9 19.1 L8.9 22.8 L7.8 27.6 L7.0 32.0 L5.8 36.8 L5.0 40.4 L4.3 42.9 L4.0 44.7 L4.0 47.1 L4.1 50.0 L4.5 52.2 L5.0 54.7 L5.9 58.4 L8.7 70.0 L10.1 75.8 Z"/></svg>