<svg xmlns="http://www.w3.org/2000/svg" viewBox="0 0 108.0 95.7" fill="none" stroke="#111111" stroke-width="1.54" stroke-linejoin="round" stroke-linecap="round"><path d="M30.5 82.5 L23.0 84.4 L21.6 84.5 L20.0 84.5 L18.5 84.1 L17.5 83.6 L16.2 82.8 L15.2 81.9 L14.5 80.9 L13.9 79.8 L13.5 78.6 L13.4 77.4 L13.5 76.0 L13.6 74.9 L14.0 73.9 L14.6 73.0 L15.4 72.2 L17.2 71.4 L18.9 71.4 L20.2 71.9 L20.8 72.5 L21.2 73.1 L21.2 74.0 L20.9 75.3 L20.4 77.3 L20.2 78.1 L20.6 78.9 L21.3 79.7 L22.7 80.2 L24.1 79.9 L24.9 79.4 L25.4 78.6 L25.9 77.7 L26.3 76.6 L26.6 75.3 L26.7 73.8 L26.5 72.6 L25.7 71.2 L25.2 70.4 L23.7 68.5 L19.7 64.2 L16.6 60.1 L14.0 57.4 L10.8 53.7 L9.8 52.0 L9.3 50.8 L6.0 41.1 L5.0 38.1 L4.0 35.3 L4.0 34.5 L4.4 33.9 L5.2 33.6 L6.7 33.9 L8.1 34.8 L9.4 35.9 L10.6 37.2 L12.4 39.0 L13.9 41.2 L16.5 45.9 L20.1 52.2 L21.3 53.9 L22.4 55.3 L23.7 56.5 L25.2 57.4 L26.8 58.0 L28.5 58.3 L30.4 58.3 L32.1 58.0 L33.7 57.4 L35.4 56.3 L37.0 55.0 L38.2 53.6 L39.5 50.7 L41.6 46.4 L42.5 45.0 L43.4 44.1 L44.5 43.5 L46.2 42.7 L47.8 42.6 L49.2 42.7 L50.4 43.2 L51.5 43.9 L52.3 44.6 L53.0 45.3 L56.4 51.9 L57.2 52.8 L58.2 53.1 L59.2 53.0 L60.1 52.6 L63.5 48.1 L63.9 47.2 L63.9 46.4 L63.7 45.6 L55.4 31.5 L50.2 23.1 L44.5 13.7 L43.7 13.4 L42.9 13.6 L42.2 14.3 L41.3 15.2 L40.5 16.3 L39.7 16.8 L38.7 17.1 L37.7 16.9 L36.7 16.0 L35.5 14.7 L34.9 13.6 L34.6 12.6 L34.4 11.2 L34.5 9.9 L34.7 8.6 L35.1 7.4 L36.2 5.9 L37.3 5.1 L38.7 4.5 L40.3 4.1 L41.5 4.0 L43.1 4.1 L45.0 4.6 L46.3 5.1 L47.6 5.8 L49.5 7.5 L51.1 9.8 L68.5 36.5 L79.4 53.0 L85.0 61.5 L90.0 69.3 L96.6 79.1 L103.6 89.3 L104.0 90.2 L104.0 91.1 L103.4 91.7 L102.4 91.6 L100.4 90.7 L99.3 89.8 L98.0 88.9 L84.5 70.5 L83.9 70.2 L82.8 70.1 L66.0 74.1 L30.5 82.5 Z"/></svg>