<svg xmlns="http://www.w3.org/2000/svg" viewBox="0 0 68.0 108.0" fill="none" stroke="#111111" stroke-width="1.54" stroke-linejoin="round" stroke-linecap="round"><path d="M58.9 92.8 L61.8 89.6 L62.4 89.0 L62.8 88.2 L62.9 87.4 L62.6 86.6 L62.0 86.1 L60.9 85.7 L59.9 85.5 L58.9 85.6 L58.0 85.9 L56.0 87.1 L54.2 88.9 L53.4 89.4 L51.9 89.7 L51.0 89.7 L49.5 89.2 L48.7 88.7 L47.9 88.1 L46.6 86.3 L46.1 84.8 L45.7 40.9 L46.0 40.3 L46.5 39.9 L55.6 40.1 L58.3 40.1 L59.7 39.8 L60.3 39.3 L61.9 37.7 L62.6 36.7 L63.2 35.6 L63.6 34.6 L63.8 33.4 L64.0 31.9 L63.9 31.0 L63.4 30.7 L62.1 30.6 L61.7 30.3 L61.3 29.7 L61.1 28.7 L61.2 28.0 L62.4 25.8 L62.7 25.2 L63.2 24.2 L63.0 23.2 L62.0 22.5 L60.1 22.3 L45.7 21.9 L40.4 21.1 L38.6 20.3 L36.7 18.3 L35.1 15.0 L32.5 9.0 L30.9 7.3 L29.2 6.1 L27.5 5.5 L24.8 4.6 L21.7 4.0 L21.3 4.1 L20.9 4.4 L20.6 5.5 L20.3 6.2 L17.1 12.4 L15.1 16.0 L14.1 17.9 L13.0 19.7 L11.2 22.9 L9.4 27.1 L8.4 30.3 L7.3 34.0 L6.6 36.7 L6.0 39.3 L5.6 42.0 L5.1 45.9 L5.0 48.2 L4.9 50.9 L4.9 58.3 L4.9 62.5 L5.0 65.7 L4.4 82.3 L4.2 90.9 L4.2 95.2 L4.0 100.3 L4.3 100.7 L4.7 100.9 L5.6 100.8 L6.3 101.1 L7.9 102.7 L9.3 103.5 L11.1 103.8 L19.0 104.0 L29.4 103.9 L38.0 103.9 L42.2 103.9 L45.6 103.4 L49.2 102.7 L50.1 102.3 L50.9 101.8 L51.5 101.2 L58.9 92.8 Z"/></svg>