<svg xmlns="http://www.w3.org/2000/svg" viewBox="0 0 92.7 108.0" fill="none" stroke="#111111" stroke-width="1.54" stroke-linejoin="round" stroke-linecap="round"><path d="M18.9 64.5 L8.4 45.3 L4.3 37.9 L4.0 36.5 L4.2 35.1 L4.7 33.9 L5.5 33.1 L6.8 32.4 L8.2 32.1 L9.6 32.4 L20.1 38.7 L21.1 39.0 L22.4 39.1 L23.9 38.6 L25.1 37.5 L25.8 36.2 L26.0 35.0 L25.8 25.8 L25.9 24.6 L26.3 23.5 L26.8 22.5 L27.5 21.7 L42.4 5.1 L43.2 4.5 L44.5 4.1 L45.7 4.0 L47.0 4.3 L47.9 4.9 L52.4 9.1 L52.9 10.0 L53.1 11.3 L53.1 12.3 L52.8 13.4 L52.1 14.3 L42.4 25.0 L42.0 25.7 L42.0 26.6 L42.2 27.3 L42.7 27.9 L43.4 28.3 L44.3 28.4 L45.0 28.2 L45.9 27.8 L62.8 21.1 L63.9 21.0 L65.3 21.1 L66.4 21.7 L67.3 22.6 L67.9 23.7 L68.1 24.8 L68.1 25.8 L67.8 26.8 L67.1 27.9 L66.5 28.4 L65.2 29.5 L63.7 31.2 L62.5 32.9 L61.5 34.7 L60.6 36.8 L60.2 38.3 L59.7 40.8 L59.2 41.9 L58.5 42.8 L57.7 43.4 L56.7 43.8 L47.1 46.2 L46.2 46.7 L45.6 47.3 L45.2 48.2 L45.1 49.1 L45.2 50.5 L46.3 51.9 L48.1 53.7 L50.8 55.8 L53.7 57.4 L56.7 58.5 L59.6 59.1 L62.5 59.4 L65.6 59.1 L80.0 57.5 L81.3 57.7 L82.8 58.5 L84.0 59.4 L85.1 60.9 L88.4 67.1 L88.7 68.1 L88.7 69.1 L88.6 70.1 L87.9 71.4 L82.7 79.8 L82.0 80.4 L81.1 80.8 L80.1 81.1 L78.7 81.1 L62.2 77.7 L61.0 77.7 L59.8 78.1 L58.8 78.8 L58.1 79.6 L46.6 102.0 L45.7 103.1 L44.7 103.8 L43.1 104.0 L42.0 103.9 L40.9 103.4 L39.7 102.4 L18.9 64.5 Z"/></svg>