<svg xmlns="http://www.w3.org/2000/svg" viewBox="0 0 54.9 108.0" fill="none" stroke="#111111" stroke-width="1.54" stroke-linejoin="round" stroke-linecap="round"><path d="M26.9 60.0 L40.8 58.1 L41.5 57.9 L42.1 57.3 L42.5 56.5 L42.5 55.7 L42.3 54.9 L40.1 45.4 L39.7 44.4 L39.2 43.7 L38.3 42.9 L37.6 42.6 L33.7 41.3 L32.3 40.7 L31.4 40.0 L30.5 39.2 L29.8 38.4 L29.3 37.7 L28.7 36.3 L28.5 35.2 L28.5 34.0 L28.7 32.6 L29.2 31.1 L30.2 27.4 L30.5 24.6 L30.5 22.6 L30.4 20.9 L29.3 12.1 L28.6 6.5 L28.4 5.8 L28.3 5.3 L27.9 4.8 L27.2 4.2 L26.7 4.1 L26.2 4.0 L25.8 4.1 L25.3 4.3 L24.9 4.7 L24.7 5.0 L24.4 5.6 L23.5 8.2 L22.7 11.9 L15.7 32.6 L13.0 40.7 L11.5 45.1 L10.4 48.6 L9.2 52.9 L6.7 60.9 L4.3 68.0 L4.1 68.7 L4.0 69.2 L4.1 69.6 L4.3 69.9 L4.9 69.9 L7.1 69.6 L7.6 69.6 L8.0 70.1 L9.3 74.9 L9.5 75.8 L10.3 77.7 L11.1 79.2 L12.6 81.4 L14.4 83.5 L16.6 85.4 L26.1 92.9 L28.2 94.6 L29.9 95.8 L32.2 97.3 L34.2 98.4 L37.3 99.9 L40.2 101.2 L44.4 103.3 L46.3 104.0 L47.3 104.0 L48.4 103.8 L49.4 103.2 L49.9 102.7 L50.3 102.2 L50.6 101.4 L50.8 100.7 L50.9 100.1 L50.8 98.9 L50.6 98.1 L50.3 97.4 L49.8 96.7 L49.2 96.0 L48.4 95.5 L47.5 95.1 L46.2 94.9 L36.3 94.1 L35.0 94.0 L34.5 93.8 L34.0 93.6 L28.6 90.3 L28.1 89.9 L27.7 89.4 L27.3 88.4 L26.1 82.6 L26.2 82.1 L26.4 81.8 L26.9 81.7 L31.3 81.0 L31.8 80.8 L32.2 80.6 L32.5 80.3 L32.9 79.6 L33.0 78.8 L33.0 74.8 L32.7 74.1 L32.3 73.7 L31.6 73.4 L30.8 73.3 L30.1 73.2 L29.1 73.1 L28.2 73.2 L18.9 74.6 L18.1 74.7 L17.1 74.6 L16.1 74.5 L15.4 74.2 L15.0 73.8 L14.5 73.3 L12.0 68.7 L10.6 66.6 L10.4 65.9 L10.2 65.1 L10.1 64.4 L10.1 63.6 L10.2 63.0 L10.6 62.6 L11.0 62.3 L12.0 62.2 L26.9 60.0 Z"/></svg>