<svg xmlns="http://www.w3.org/2000/svg" viewBox="0 0 108.0 61.4" fill="none" stroke="#111111" stroke-width="1.54" stroke-linejoin="round" stroke-linecap="round"><path d="M89.4 32.5 L95.6 39.9 L102.8 48.8 L103.4 49.7 L103.8 50.7 L104.0 51.6 L104.0 52.4 L103.9 53.1 L103.0 55.7 L102.6 56.4 L102.1 56.9 L101.6 57.2 L100.7 57.4 L99.9 57.4 L99.0 57.1 L98.2 56.4 L97.4 55.2 L93.1 48.6 L92.3 47.9 L91.6 47.7 L90.6 47.5 L88.4 47.5 L87.2 47.2 L86.5 46.7 L85.9 45.9 L85.6 45.2 L84.6 41.5 L84.2 40.5 L83.5 39.7 L82.8 39.1 L81.8 38.7 L80.8 38.5 L78.2 38.4 L77.1 38.2 L76.3 37.8 L75.4 37.2 L74.8 36.3 L74.4 35.4 L74.3 34.5 L74.3 33.7 L74.4 33.0 L75.7 29.5 L75.9 28.8 L75.9 27.9 L75.8 27.3 L75.4 26.4 L74.9 25.7 L74.0 25.0 L72.8 24.4 L71.5 23.7 L70.3 23.2 L69.4 23.0 L68.1 22.8 L66.7 22.7 L65.6 22.8 L64.7 23.0 L63.9 23.3 L62.7 23.9 L61.5 24.5 L60.0 25.7 L58.9 26.9 L54.2 32.6 L54.0 32.9 L53.2 33.1 L46.4 33.7 L45.9 33.7 L45.5 33.3 L45.3 32.8 L45.2 32.3 L44.2 28.1 L42.8 20.0 L42.5 18.5 L42.4 17.8 L42.5 17.0 L42.7 16.2 L43.0 15.4 L43.3 14.6 L44.4 12.0 L44.6 11.6 L44.5 11.3 L44.3 11.0 L43.9 10.7 L43.5 10.6 L43.1 10.6 L42.6 10.9 L42.3 11.5 L40.6 14.2 L39.3 16.3 L38.5 17.6 L37.8 18.4 L37.2 18.9 L36.1 19.8 L35.0 20.4 L33.9 20.7 L31.8 21.0 L29.9 21.1 L28.5 21.0 L26.8 20.6 L24.9 20.1 L22.8 19.3 L21.5 18.7 L20.4 18.0 L19.3 17.2 L18.2 16.2 L17.0 14.9 L16.2 13.7 L15.5 12.5 L13.8 7.9 L12.9 6.0 L12.4 5.2 L11.8 4.6 L11.0 4.2 L10.0 4.0 L8.8 4.0 L7.7 4.2 L6.6 4.4 L5.6 4.9 L4.7 5.5 L4.2 6.3 L4.0 7.1 L4.1 8.2 L4.3 8.9 L4.6 9.7 L5.2 10.3 L6.4 11.4 L7.8 12.6 L9.2 13.8 L11.0 15.2 L13.0 16.6 L15.1 17.9 L17.4 19.0 L19.5 20.1 L21.7 20.9 L25.1 22.1 L29.0 23.6 L33.6 25.2 L38.2 26.6 L41.4 27.7 L45.5 29.3 L46.4 29.5 L47.3 29.6 L48.3 29.4 L49.3 29.1 L51.0 28.4 L52.6 27.7 L54.0 26.8 L55.4 25.7 L57.9 23.3 L61.5 20.0 L62.5 19.2 L63.2 18.7 L63.8 18.3 L64.3 18.0 L64.5 18.0 L64.9 18.1 L65.7 18.8 L66.2 19.3 L66.7 19.4 L67.1 19.4 L67.7 19.0 L68.5 18.2 L69.5 17.5 L70.6 17.1 L71.9 17.0 L73.1 17.0 L74.4 17.3 L75.7 17.8 L76.8 18.3 L78.2 19.3 L79.4 20.4 L80.7 21.9 L89.4 32.5 Z"/></svg>