<svg xmlns="http://www.w3.org/2000/svg" viewBox="0 0 108.0 47.8" fill="none" stroke="#111111" stroke-width="1.54" stroke-linejoin="round" stroke-linecap="round"><path d="M53.4 15.1 L67.0 23.6 L67.2 24.3 L67.1 24.8 L66.7 25.6 L63.8 27.8 L62.9 28.8 L62.6 30.5 L62.9 32.4 L62.6 34.7 L61.9 36.2 L59.3 38.3 L56.3 39.3 L54.3 39.7 L51.5 39.8 L49.2 39.4 L46.6 38.2 L33.2 30.2 L31.2 29.0 L30.3 28.8 L29.1 28.8 L28.0 28.9 L26.6 29.4 L25.3 30.0 L24.1 31.0 L22.8 31.9 L21.1 32.2 L19.6 32.0 L18.0 31.2 L16.4 29.9 L15.0 28.5 L13.4 27.7 L11.8 27.4 L9.9 27.7 L8.1 28.3 L6.6 29.0 L5.5 30.0 L4.4 31.7 L4.0 33.4 L4.0 34.9 L4.4 35.9 L4.9 36.6 L6.0 37.2 L7.3 37.2 L9.0 36.8 L10.8 36.8 L14.6 37.6 L21.5 39.0 L28.6 38.8 L39.5 38.4 L42.6 39.3 L46.3 40.7 L49.3 41.7 L53.3 43.0 L57.5 43.7 L61.7 43.8 L66.2 43.0 L70.2 41.6 L79.4 38.2 L84.8 36.2 L87.4 35.1 L94.0 31.5 L97.5 29.3 L98.3 28.3 L98.0 27.5 L97.4 26.9 L95.7 25.9 L94.6 25.0 L94.0 23.8 L93.9 22.5 L94.2 20.9 L95.1 20.0 L96.1 19.6 L99.2 19.8 L100.7 19.6 L101.4 19.2 L102.4 18.2 L104.0 15.3 L103.9 14.7 L103.1 14.4 L102.4 13.9 L102.4 12.8 L103.7 8.7 L103.6 8.0 L103.0 7.6 L99.8 7.3 L53.8 5.7 L17.2 4.0 L16.1 4.3 L15.9 5.1 L16.3 6.2 L17.5 7.3 L19.5 8.8 L21.6 9.9 L23.4 10.4 L24.9 10.3 L26.8 9.6 L31.1 7.5 L33.5 6.9 L36.5 6.6 L39.5 7.0 L42.3 8.2 L53.4 15.1 Z"/></svg>