<svg xmlns="http://www.w3.org/2000/svg" viewBox="0 0 40.5 108.0" fill="none" stroke="#111111" stroke-width="1.54" stroke-linejoin="round" stroke-linecap="round"><path d="M31.2 76.4 L32.4 82.1 L33.4 86.3 L33.9 89.5 L33.9 92.0 L33.1 98.9 L33.3 99.7 L33.8 100.3 L35.9 101.2 L36.3 101.5 L36.5 102.1 L36.4 102.7 L36.1 103.3 L35.6 103.7 L34.9 104.0 L34.0 104.0 L33.0 103.8 L30.5 103.1 L28.9 102.5 L27.3 101.7 L25.9 100.7 L22.4 97.8 L20.4 95.8 L20.0 95.3 L19.9 94.8 L19.9 94.3 L20.3 93.2 L20.4 92.5 L20.3 91.9 L20.1 91.5 L16.2 86.7 L15.5 86.1 L14.1 85.2 L13.3 84.5 L12.5 83.4 L12.0 82.1 L11.7 80.9 L11.5 79.9 L11.6 72.4 L11.6 71.8 L11.3 71.3 L10.8 70.9 L10.0 70.7 L8.8 71.0 L8.2 71.0 L7.4 70.8 L6.7 70.4 L6.2 69.9 L5.8 69.4 L5.5 68.8 L5.2 67.8 L4.9 66.5 L4.5 64.9 L4.5 63.6 L4.0 57.9 L4.0 54.8 L4.1 52.3 L4.3 49.6 L4.6 47.4 L4.9 45.7 L6.9 37.6 L7.3 36.8 L7.8 36.5 L8.3 36.4 L9.0 36.3 L9.6 36.2 L10.1 35.8 L10.7 35.2 L11.2 34.5 L11.6 33.5 L13.6 25.3 L14.4 20.9 L14.7 17.8 L14.8 14.7 L14.8 13.6 L14.6 12.5 L13.2 5.3 L13.1 4.9 L13.2 4.5 L13.5 4.1 L14.2 4.0 L14.6 4.1 L14.9 4.5 L14.9 4.7 L15.1 6.3 L15.4 8.8 L15.5 9.6 L15.8 10.5 L16.8 12.7 L17.8 14.6 L22.5 26.9 L23.1 28.4 L30.1 62.1 L30.4 63.5 L30.3 63.9 L30.0 64.3 L29.4 64.5 L29.1 64.9 L28.9 65.3 L29.0 65.8 L30.2 71.6 L31.2 76.4 Z"/></svg>