<svg xmlns="http://www.w3.org/2000/svg" viewBox="0 0 83.5 108.0" fill="none" stroke="#111111" stroke-width="1.54" stroke-linejoin="round" stroke-linecap="round"><path d="M53.3 23.5 L53.2 22.5 L53.4 21.6 L54.0 20.3 L54.5 19.4 L56.3 17.2 L65.2 5.1 L65.8 4.3 L66.7 4.0 L67.8 4.3 L68.6 5.0 L69.2 6.0 L69.3 7.1 L69.3 8.0 L69.4 8.8 L69.9 9.7 L70.4 10.4 L71.4 11.8 L72.1 13.1 L72.3 13.8 L72.7 14.3 L73.2 14.4 L73.8 14.2 L74.3 13.7 L74.4 13.1 L74.1 12.5 L73.4 11.9 L71.0 9.0 L70.7 8.3 L70.7 7.6 L70.9 7.0 L71.1 6.5 L72.2 6.0 L73.9 5.6 L74.8 5.2 L75.8 4.8 L77.1 4.4 L78.5 4.3 L79.2 4.7 L79.5 5.8 L79.2 12.6 L78.2 19.6 L77.1 24.1 L75.9 27.3 L73.8 30.9 L71.4 34.0 L68.0 37.8 L63.0 40.8 L60.0 42.2 L54.3 44.9 L50.5 46.2 L44.9 47.6 L41.2 48.1 L39.3 48.5 L39.0 49.1 L38.9 49.6 L38.8 50.1 L38.6 50.7 L37.7 51.0 L36.6 51.2 L35.3 50.4 L34.6 50.4 L24.4 51.7 L19.4 52.5 L14.7 53.2 L13.4 53.4 L12.6 53.5 L11.9 54.2 L11.0 56.1 L10.1 58.0 L9.5 59.8 L9.2 61.1 L8.9 63.4 L8.9 67.4 L8.9 68.4 L9.2 69.1 L9.8 69.7 L11.1 70.6 L11.9 71.4 L12.3 72.3 L12.4 73.5 L13.9 81.9 L14.3 83.4 L14.4 83.9 L14.3 84.5 L14.0 85.0 L13.1 85.6 L12.3 86.0 L12.1 86.5 L12.3 87.7 L13.2 90.5 L14.1 92.5 L14.9 94.1 L16.4 96.3 L18.3 98.1 L19.7 98.9 L21.2 99.7 L22.0 100.0 L22.4 100.4 L22.8 101.8 L22.6 102.5 L21.9 102.9 L18.8 103.7 L17.1 104.0 L16.0 104.0 L15.0 103.9 L14.3 103.4 L13.9 103.0 L13.9 102.0 L13.8 101.3 L13.5 100.4 L11.7 98.2 L10.5 96.2 L9.5 94.6 L8.4 91.7 L6.1 83.7 L5.5 81.1 L5.0 78.3 L4.5 74.2 L4.0 68.9 L4.0 65.5 L4.1 62.8 L4.4 60.1 L4.9 58.2 L5.5 56.5 L5.8 55.4 L5.9 54.5 L5.9 53.1 L5.9 52.2 L6.1 51.7 L6.9 51.3 L8.6 50.9 L10.2 50.9 L12.3 50.6 L15.3 50.2 L17.9 49.7 L24.6 47.8 L28.4 46.7 L31.8 46.2 L34.2 46.0 L36.0 45.3 L41.4 42.8 L43.7 41.8 L47.1 41.1 L50.0 40.7 L52.7 40.2 L54.2 39.7 L56.1 38.5 L57.7 36.8 L58.6 35.4 L59.0 33.9 L58.9 32.4 L58.7 30.9 L58.1 29.3 L57.3 27.8 L56.1 26.8 L55.0 25.8 L54.4 25.3 L53.9 24.7 L53.3 23.5 Z"/></svg>