<svg xmlns="http://www.w3.org/2000/svg" viewBox="0 0 89.7 108.0" fill="none" stroke="#111111" stroke-width="1.54" stroke-linejoin="round" stroke-linecap="round"><path d="M68.3 48.7 L57.8 65.5 L51.9 74.9 L45.8 84.5 L39.5 94.7 L37.3 98.2 L36.6 98.9 L36.0 99.5 L35.4 99.7 L34.5 99.9 L33.6 99.8 L32.9 99.6 L32.3 99.3 L30.1 97.9 L29.4 97.6 L28.2 97.3 L27.2 97.3 L25.7 97.6 L24.9 98.1 L18.8 102.7 L18.0 103.1 L17.1 103.4 L15.9 103.8 L14.8 104.0 L13.9 104.0 L12.8 103.9 L11.6 103.8 L10.5 103.4 L9.1 102.7 L8.4 102.2 L7.7 101.7 L7.2 101.1 L5.6 99.1 L4.8 97.5 L4.3 95.7 L4.1 94.5 L4.0 93.0 L4.0 91.5 L4.3 89.8 L4.9 87.2 L5.6 85.1 L6.4 83.4 L7.3 82.1 L17.8 65.2 L18.5 64.6 L19.4 64.1 L21.0 63.7 L22.1 63.8 L22.9 64.1 L23.9 64.6 L25.0 65.5 L25.7 66.3 L26.6 68.0 L26.9 69.3 L26.9 71.3 L26.9 72.5 L26.6 73.9 L26.0 75.2 L24.9 77.2 L17.3 89.2 L17.0 90.0 L17.0 90.7 L17.2 91.6 L17.6 92.2 L18.0 92.7 L18.6 93.1 L19.3 93.4 L19.9 93.5 L20.9 93.3 L21.3 93.1 L32.9 87.9 L34.5 86.9 L36.1 85.7 L37.7 84.2 L38.8 82.8 L43.4 75.6 L43.9 74.5 L44.1 73.7 L43.9 72.6 L43.3 71.5 L42.4 70.7 L40.3 69.4 L39.2 68.5 L38.6 67.8 L37.9 66.9 L37.6 66.3 L34.7 59.4 L31.4 51.6 L31.2 50.3 L31.2 48.9 L31.3 47.9 L31.5 46.8 L32.2 45.7 L32.7 44.9 L33.7 43.7 L34.8 42.9 L71.5 24.0 L72.8 23.3 L73.5 22.6 L73.8 21.9 L73.9 21.1 L73.6 20.1 L73.2 19.4 L72.6 18.8 L71.7 18.1 L70.2 17.5 L69.3 17.2 L68.1 17.1 L67.0 17.0 L65.9 17.1 L64.7 17.4 L63.1 18.2 L61.9 18.8 L60.4 20.2 L58.8 21.3 L57.7 21.8 L56.1 21.9 L55.1 21.7 L53.9 21.1 L52.9 20.3 L52.4 19.4 L51.9 18.3 L51.7 17.2 L51.7 16.7 L52.0 15.2 L52.6 14.1 L53.5 13.2 L62.3 6.0 L63.1 5.2 L64.2 4.6 L65.2 4.3 L66.6 4.0 L68.0 4.0 L69.2 4.3 L70.2 4.7 L72.3 6.0 L74.6 7.5 L76.6 8.9 L77.9 9.6 L82.2 12.4 L83.3 13.1 L83.9 13.8 L84.6 14.6 L85.0 15.6 L85.4 16.8 L85.7 18.0 L85.7 19.7 L85.4 21.2 L84.2 23.6 L68.3 48.7 Z"/></svg>