<svg xmlns="http://www.w3.org/2000/svg" viewBox="0 0 108.0 71.1" fill="none" stroke="#111111" stroke-width="1.54" stroke-linejoin="round" stroke-linecap="round"><path d="M70.7 60.5 L63.8 62.4 L46.7 67.0 L45.5 67.1 L44.7 66.4 L43.4 63.8 L39.2 58.2 L34.7 51.7 L31.1 46.0 L27.9 40.4 L22.6 28.8 L21.1 25.7 L18.9 22.1 L15.4 17.9 L9.6 12.1 L4.3 6.8 L4.0 6.1 L4.0 5.3 L4.6 4.9 L6.0 4.7 L10.4 4.2 L14.7 4.0 L19.2 4.0 L23.5 4.5 L28.5 5.3 L43.7 8.2 L50.6 9.1 L65.5 9.7 L66.8 10.2 L67.5 11.0 L67.8 11.9 L67.7 12.9 L67.3 13.8 L65.8 15.9 L64.7 17.4 L62.5 19.3 L60.1 20.6 L57.2 21.5 L54.1 22.0 L50.8 21.8 L38.0 19.8 L36.3 20.0 L34.9 20.5 L33.7 21.3 L32.6 22.5 L32.0 23.8 L31.6 25.3 L31.5 26.6 L31.7 28.1 L32.1 29.2 L38.3 40.0 L39.3 41.1 L41.0 42.1 L42.9 42.6 L44.7 42.4 L46.6 41.6 L47.8 40.6 L49.0 39.1 L50.2 37.7 L51.4 36.4 L52.8 35.4 L54.6 34.4 L56.9 33.5 L59.4 33.0 L79.2 32.6 L94.4 32.2 L96.0 32.2 L97.6 32.8 L98.9 33.7 L99.9 35.0 L100.7 36.7 L103.8 47.2 L104.0 48.2 L103.8 48.9 L103.5 49.4 L102.3 50.4 L100.6 51.3 L98.6 52.4 L96.2 53.4 L93.4 54.3 L70.7 60.5 Z"/></svg>