<svg xmlns="http://www.w3.org/2000/svg" viewBox="0 0 67.9 108.0" fill="none" stroke="#111111" stroke-width="1.54" stroke-linejoin="round" stroke-linecap="round"><path d="M39.6 4.9 L50.5 4.0 L52.4 4.1 L53.9 4.6 L54.9 5.3 L56.0 6.6 L56.8 8.1 L57.4 10.0 L58.2 13.3 L59.0 16.5 L59.5 20.1 L59.7 22.3 L60.0 27.7 L60.1 32.3 L60.3 34.1 L61.0 35.8 L62.3 38.2 L62.9 39.5 L62.8 40.5 L62.6 41.7 L60.8 46.6 L60.6 48.5 L60.9 49.9 L61.6 51.1 L63.4 53.7 L63.8 54.8 L63.9 56.2 L63.6 57.5 L62.5 58.8 L61.0 59.8 L59.1 61.0 L57.6 61.9 L56.5 62.9 L55.3 64.9 L52.9 69.5 L39.7 93.8 L35.3 100.6 L34.1 102.2 L33.1 103.1 L32.0 103.7 L30.8 104.0 L29.6 103.9 L28.4 103.6 L27.4 103.2 L26.5 102.4 L25.7 101.3 L25.4 100.8 L24.3 98.3 L22.9 96.0 L21.5 94.1 L20.6 92.9 L19.5 91.7 L17.6 89.8 L13.3 84.7 L12.9 84.4 L12.3 84.3 L11.7 84.6 L9.9 86.2 L9.3 86.4 L8.7 86.4 L8.2 86.2 L7.4 85.4 L6.6 84.7 L5.7 83.4 L5.0 82.0 L4.5 80.6 L4.0 79.0 L4.0 78.4 L4.1 77.7 L4.5 77.1 L5.3 75.8 L18.3 58.8 L21.3 55.0 L21.9 54.3 L22.9 53.6 L24.2 53.3 L25.3 53.3 L26.7 53.4 L30.7 54.0 L32.0 54.2 L33.4 54.2 L35.0 54.0 L36.4 53.6 L37.6 52.9 L45.9 46.3 L46.5 46.0 L47.1 45.6 L47.8 45.6 L48.3 45.7 L48.8 46.2 L49.1 46.7 L50.5 51.6 L50.9 52.3 L51.5 52.7 L52.2 52.8 L53.0 52.4 L53.4 51.8 L53.8 51.2 L54.3 49.6 L54.8 48.2 L55.2 46.8 L55.4 45.5 L55.5 44.2 L55.4 42.7 L55.1 42.1 L54.4 41.3 L27.4 16.7 L26.7 16.2 L25.7 15.7 L24.5 15.5 L23.2 15.7 L21.8 16.3 L21.4 16.9 L21.0 17.8 L20.5 22.2 L20.2 23.1 L19.5 23.9 L18.5 24.4 L17.4 24.5 L16.2 24.2 L15.4 23.6 L14.9 22.9 L14.5 22.2 L14.4 21.3 L14.6 20.4 L15.2 18.9 L18.7 12.0 L19.8 10.7 L20.9 9.6 L22.4 8.2 L23.7 7.4 L25.3 6.7 L26.7 6.2 L29.7 5.9 L39.6 4.9 Z"/></svg>